<svg width="45" height="45" viewBox="0 0 45 45" fill="none" xmlns="http://www.w3.org/2000/svg">
<path d="M22.755 25.7021C22.7132 25.7021 22.6504 25.7021 22.6085 25.7021C22.5457 25.7021 22.462 25.7021 22.3992 25.7021C17.648 25.5556 14.0898 21.8509 14.0898 17.2881C14.0898 12.6416 17.8782 8.85327 22.5248 8.85327C27.1713 8.85327 30.9597 12.6416 30.9597 17.2881C30.9387 21.8719 27.3597 25.5556 22.8178 25.7021C22.776 25.7021 22.776 25.7021 22.755 25.7021ZM22.5039 11.9719C19.5736 11.9719 17.2084 14.3579 17.2084 17.2672C17.2084 20.1347 19.448 22.4579 22.2946 22.5625C22.3573 22.5416 22.5666 22.5416 22.776 22.5625C25.5806 22.416 27.7783 20.1137 27.7992 17.2672C27.7992 14.3579 25.4341 11.9719 22.5039 11.9719Z" fill="#409A3E"/>
<path d="M22.4975 44.9998C16.8672 44.9998 11.4882 42.9068 7.32306 39.0976C6.94631 38.7627 6.77887 38.2603 6.82073 37.779C7.09283 35.2883 8.64166 32.965 11.2161 31.2488C17.4533 27.1046 27.5626 27.1046 33.7789 31.2488C36.3533 32.986 37.9021 35.2883 38.1742 37.779C38.237 38.2813 38.0486 38.7627 37.6719 39.0976C33.5068 42.9068 28.1277 44.9998 22.4975 44.9998ZM10.1068 37.3604C13.5812 40.2696 17.9556 41.8603 22.4975 41.8603C27.0393 41.8603 31.4137 40.2696 34.8882 37.3604C34.5114 36.0836 33.5068 34.8487 32.0207 33.8441C26.8719 30.4115 18.144 30.4115 12.9533 33.8441C11.4672 34.8487 10.4835 36.0836 10.1068 37.3604Z" fill="#409A3E"/>
<path d="M22.5 44.9998C10.0884 44.9998 0 34.9115 0 22.4999C0 10.0883 10.0884 0 22.5 0C34.9116 0 45 10.0883 45 22.4999C45 34.9115 34.9116 44.9998 22.5 44.9998ZM22.5 3.13952C11.8256 3.13952 3.13953 11.8255 3.13953 22.4999C3.13953 33.1743 11.8256 41.8603 22.5 41.8603C33.1744 41.8603 41.8605 33.1743 41.8605 22.4999C41.8605 11.8255 33.1744 3.13952 22.5 3.13952Z" fill="#409A3E"/>
</svg>
